<svg width="24" height="24" viewBox="0 0 24 24" fill="none" xmlns="http://www.w3.org/2000/svg">
<g id="Logo bubble/24/Twitter">
<path id="Combined Shape" fillRule="evenodd" clipRule="evenodd" d="M24 12C24 18.6274 18.6274 24 12 24C5.37258 24 0 18.6274 0 12C0 5.37258 5.37258 0 12 0C18.6274 0 24 5.37258 24 12ZM18.4736 10.3807C18.4736 14.3836 15.3782 18.9999 9.71755 19C7.97933 19 6.36201 18.4986 5 17.6392C5.2409 17.6672 5.486 17.6811 5.73411 17.6811C7.17622 17.6811 8.50313 17.1971 9.55645 16.3844C8.20943 16.3599 7.07332 15.484 6.68152 14.2803C6.86902 14.3158 7.06192 14.335 7.25992 14.335C7.54072 14.335 7.81283 14.2977 8.07143 14.2283C6.66322 13.9508 5.60241 12.7258 5.60241 11.2587C5.60241 11.2451 5.60241 11.2327 5.60286 11.22C6.01746 11.4471 6.49177 11.5835 6.99667 11.5989C6.17046 11.0561 5.62716 10.1282 5.62716 9.07722C5.62716 8.52233 5.77956 8.00229 6.04386 7.5546C7.56158 9.3876 9.8296 10.5931 12.3874 10.7197C12.3346 10.498 12.3076 10.2667 12.3076 10.029C12.3076 8.35666 13.6858 7 15.3854 7C16.2707 7 17.0702 7.36825 17.6318 7.95711C18.3329 7.82097 18.9914 7.56877 19.586 7.22178C19.3559 7.92905 18.8681 8.52233 18.2327 8.89738C18.8552 8.82414 19.4486 8.66172 20 8.42045C19.5881 9.02791 19.0658 9.56154 18.4649 9.98915C18.4709 10.1191 18.4736 10.2496 18.4736 10.3807Z" fill="#34AAF2"/>
</g>
</svg>
