<svg width="32" height="26" viewBox="0 0 32 26" fill="none" xmlns="http://www.w3.org/2000/svg">
<g filter="url(#filter0_d_822_634)">
<path fillRule="evenodd" clipRule="evenodd" d="M7.33151 2H24.6685C22.6235 4.151 19.1835 7.773 17.7355 9.315C16.8285 10.28 15.1715 10.28 14.2645 9.315C12.8165 7.773 9.37551 4.151 7.33151 2ZM5.99951 16V3.503C8.05451 5.664 11.3875 9.173 12.8065 10.685C13.6365 11.568 14.8005 12.075 15.9995 12.075C17.1995 12.075 18.3635 11.568 19.1935 10.685C20.6125 9.173 23.9455 5.664 25.9995 3.503V16H5.99951ZM3.99951 18H27.9995V0H3.99951V18Z" fill="black"/>
</g>
<defs>
<filter id="filter0_d_822_634" x="-0.000488281" y="0" width="32" height="26" filterUnits="userSpaceOnUse" color-interpolation-filters="sRGB">
<feFlood flood-opacity="0" result="BackgroundImageFix"/>
<feColorMatrix in="SourceAlpha" type="matrix" values="0 0 0 0 0 0 0 0 0 0 0 0 0 0 0 0 0 0 127 0" result="hardAlpha"/>
<feOffset dy="4"/>
<feGaussianBlur stdDeviation="2"/>
<feComposite in2="hardAlpha" operator="out"/>
<feColorMatrix type="matrix" values="0 0 0 0 0 0 0 0 0 0 0 0 0 0 0 0 0 0 0.25 0"/>
<feBlend mode="normal" in2="BackgroundImageFix" result="effect1_dropShadow_822_634"/>
<feBlend mode="normal" in="SourceGraphic" in2="effect1_dropShadow_822_634" result="shape"/>
</filter>
</defs>
</svg>
