<svg width="32" height="32" viewBox="0 0 32 32" fill="none" xmlns="http://www.w3.org/2000/svg">
<path opacity="0.248837" fill-rule="evenodd" clip-rule="evenodd" d="M16 32C24.8366 32 32 24.8366 32 16C32 7.16344 24.8366 0 16 0C7.16344 0 0 7.16344 0 16C0 24.8366 7.16344 32 16 32Z" stroke="#333333"/>
<path opacity="0.25" d="M11.755 21.135C14.02 21.135 15.46 19.695 15.46 17.55C15.46 15.585 14.08 14.04 11.95 14.04C10.705 14.04 9.7 14.625 9.19 15.495C9.25 12.66 10.39 11.205 12.01 11.205C13.21 11.205 13.75 11.745 13.99 12.735H15.235C14.95 11.01 13.765 10.14 12.1 10.14C9.64 10.14 7.9 12.15 7.9 16.005V16.26C7.9 18.945 8.83 21.135 11.755 21.135ZM11.755 20.115C10.315 20.115 9.28 19.185 9.28 17.43C9.28 16.035 10.3 15.06 11.74 15.06C13.195 15.06 14.125 16.065 14.125 17.61C14.125 19.125 13.165 20.115 11.755 20.115ZM19.6321 19.425H20.7271V16.395H23.5321V15.345H20.7271V12.315H19.6321V15.345H16.8271V16.395H19.6321V19.425Z" fill="#333333"/>
</svg>
