<svg width="29" height="16" viewBox="0 0 29 16" fill="none" xmlns="http://www.w3.org/2000/svg">
<path d="M8 9.5C8.82843 9.5 9.5 8.82843 9.5 8C9.5 7.17157 8.82843 6.5 8 6.5C7.17157 6.5 6.5 7.17157 6.5 8C6.5 8.82843 7.17157 9.5 8 9.5Z" fill="#333333"/>
<path d="M15.9199 4C15.0394 2.47487 13.6802 1.2829 12.0532 0.608967C10.4261 -0.0649671 8.62221 -0.183203 6.92115 0.272596C5.22008 0.728396 3.71695 1.73276 2.64487 3.12991C1.5728 4.52706 0.991699 6.23893 0.991699 8C0.991699 9.76108 1.5728 11.4729 2.64487 12.8701C3.71695 14.2672 5.22008 15.2716 6.92115 15.7274C8.62221 16.1832 10.4261 16.065 12.0532 15.391C13.6802 14.7171 15.0394 13.5251 15.9199 12H28.9999V7.59L25.4099 4H15.9199ZM26.9999 10H14.6899L14.4199 10.57C13.8363 11.8011 12.8511 12.797 11.6264 13.3937C10.4016 13.9905 9.01024 14.1527 7.68105 13.8536C6.35186 13.5546 5.16404 12.812 4.31295 11.7482C3.46186 10.6843 2.99818 9.36242 2.99818 8C2.99818 6.63758 3.46186 5.31573 4.31295 4.25185C5.16404 3.18798 6.35186 2.44544 7.68105 2.14636C9.01024 1.84728 10.4016 2.00947 11.6264 2.60626C12.8511 3.20305 13.8363 4.19889 14.4199 5.43L14.6899 6H24.5899L26.9999 8.41V10Z" fill="#333333"/>
</svg>
