<svg width="23" height="24" viewBox="0 0 23 24" fill="none" xmlns="http://www.w3.org/2000/svg">
<path d="M11.0001 20C13.0397 19.999 15.0297 19.3706 16.7001 18.2L21.5301 24L23.0001 22.72L18.2201 16.9C19.8099 15.2323 20.775 13.0667 20.9523 10.7695C21.1296 8.47227 20.5082 6.18428 19.1931 4.29237C17.878 2.40047 15.95 1.02072 13.7349 0.386417C11.5199 -0.24789 9.15378 -0.0978436 7.03661 0.811189C4.91945 1.72022 3.18114 3.33247 2.11558 5.37534C1.05003 7.41821 0.722604 9.76637 1.18867 12.0228C1.65474 14.2792 2.8857 16.3055 4.67344 17.759C6.46117 19.2126 8.69599 20.0042 11.0001 20ZM11.0001 1.99999C12.5823 1.99999 14.129 2.46918 15.4446 3.34823C16.7602 4.22728 17.7856 5.47671 18.3911 6.93852C18.9966 8.40033 19.155 10.0089 18.8463 11.5607C18.5377 13.1126 17.7757 14.538 16.6569 15.6568C15.5381 16.7757 14.1126 17.5376 12.5608 17.8463C11.0089 18.155 9.4004 17.9965 7.93859 17.391C6.47678 16.7855 5.22735 15.7601 4.3483 14.4445C3.46925 13.129 3.00006 11.5822 3.00006 9.99999C3.00006 7.87826 3.84291 5.84342 5.3432 4.34313C6.84349 2.84284 8.87833 1.99999 11.0001 1.99999Z" fill="#333333"/>
</svg>
